<svg version="1.1" id="Layer_1" xmlns="http://www.w3.org/2000/svg" x="0" y="0" viewBox="0 0 593.57 126.57" style="enable-background:new 0 0 593.57 126.57" xml:space="preserve"><style>.st0{fill:#fff}</style><path class="st0" d="M182.55 26.54v39.27h-7.17V26.54h7.17zm33.04 39.27c-.99-.99-1.92-1.98-3.09-3.26-2.97 2.51-6.58 3.9-11.07 3.9-8.68 0-12.99-5.42-12.99-11.07 0-5.24 3.09-8.97 7.58-11.36v-.18c-1.87-2.21-3.15-5.07-3.15-7.87 0-4.89 3.73-10.08 11.01-10.08 5.53 0 9.73 3.44 9.73 8.8 0 4.08-2.33 7.4-8.1 10.25l-.06.23c2.74 3.15 5.77 6.64 7.92 8.97 1.69-2.62 2.86-6.29 3.55-10.43h6.41c-1.05 6.06-2.85 11.01-6.12 14.74 2.16 2.39 4.31 4.78 6.76 7.34h-8.38v.02zm-6.53-7.29c-2.39-2.51-6.12-6.64-9.79-10.89-1.87 1.28-4.02 3.32-4.02 6.58 0 3.9 2.86 6.93 7.22 6.93 2.81.01 5.14-1.1 6.59-2.62zm-9.73-23.24c0 2.39 1.11 4.31 2.85 6.29 3.32-2.1 5.24-3.9 5.24-6.64 0-2.1-1.17-4.43-3.9-4.43s-4.19 2.33-4.19 4.78zm57.16 29.36c-1.69.87-5.42 1.75-10.14 1.75-12.47 0-20.04-7.81-20.04-19.75 0-12.93 8.97-20.74 20.97-20.74 4.72 0 8.1.99 9.55 1.75l-1.57 5.71c-1.87-.82-4.43-1.51-7.69-1.51-7.98 0-13.75 5.01-13.75 14.45 0 8.62 5.07 14.16 13.69 14.16 2.91 0 5.94-.58 7.81-1.46l1.17 5.64zm14.39-9.96-3.38 11.13h-7.4l12.58-39.27h9.15l12.76 39.27h-7.69l-3.55-11.13h-12.47zm11.25-5.42-3.09-9.67c-.76-2.39-1.4-5.07-1.98-7.34h-.12c-.58 2.27-1.16 5.01-1.87 7.34l-3.03 9.67h10.09zm30-22.2c2.27-.47 6.41-.82 10.43-.82 5.3 0 8.56.64 11.24 2.51 2.45 1.46 4.08 4.02 4.08 7.34 0 3.61-2.27 6.93-6.53 8.51v.12c4.13 1.05 7.92 4.31 7.92 9.73 0 3.5-1.51 6.23-3.79 8.1-2.8 2.45-7.4 3.67-14.57 3.67-3.96 0-6.99-.29-8.8-.52l.02-38.64zm7.11 15.5h3.67c4.95 0 7.75-2.33 7.75-5.65 0-3.67-2.8-5.36-7.34-5.36-2.1 0-3.32.12-4.08.29v10.72zm0 18.06c.93.12 2.16.18 3.79.18 4.6 0 8.68-1.75 8.68-6.58 0-4.54-3.96-6.41-8.91-6.41h-3.55v12.81h-.01zm53.42-9.26c0 10.43-7.34 15.09-14.57 15.09-8.04 0-14.22-5.53-14.22-14.62 0-9.32 6.12-15.03 14.68-15.03 8.46-.01 14.11 5.93 14.11 14.56zm-21.38.29c0 5.48 2.68 9.61 7.05 9.61 4.08 0 6.93-4.02 6.93-9.73 0-4.43-1.98-9.5-6.88-9.5-5.06.01-7.1 4.9-7.1 9.62zm54.24-.29c0 10.43-7.34 15.09-14.57 15.09-8.04 0-14.22-5.53-14.22-14.62 0-9.32 6.12-15.03 14.68-15.03 8.46-.01 14.11 5.93 14.11 14.56zm-21.38.29c0 5.48 2.68 9.61 7.05 9.61 4.08 0 6.93-4.02 6.93-9.73 0-4.43-1.98-9.5-6.88-9.5-5.06.01-7.1 4.9-7.1 9.62zm34.43-1.75h.12c.7-1.11 1.51-2.33 2.27-3.32l6.87-9.15h8.62l-10.49 11.6 12 16.78h-8.8L421 53.28l-2.45 2.85v9.67h-7.17V24.44h7.17l.02 25.46zm34.67 8.1c2.33 1.34 5.82 2.51 9.5 2.51 4.6 0 7.17-2.16 7.17-5.36 0-2.97-1.98-4.72-6.99-6.53-6.47-2.33-10.6-5.77-10.6-11.42 0-6.41 5.36-11.3 13.86-11.3 4.25 0 7.4.93 9.44 1.98l-1.75 5.77c-1.4-.76-4.14-1.87-7.81-1.87-4.54 0-6.53 2.45-6.53 4.72 0 3.03 2.27 4.43 7.52 6.47 6.82 2.56 10.14 6 10.14 11.65 0 6.29-4.78 11.77-14.91 11.77-4.13 0-8.45-1.16-10.6-2.45l1.56-5.94zm38.1-28.67v8.1h6.82v5.36h-6.82v12.53c0 3.44.93 5.24 3.67 5.24 1.22 0 2.16-.18 2.8-.35l.12 5.48c-1.05.41-2.91.7-5.18.7-2.62 0-4.84-.87-6.18-2.33-1.51-1.63-2.21-4.2-2.21-7.92V42.79h-4.08v-5.36h4.08v-6.41l6.98-1.69zm38.87 22.03c0 10.43-7.34 15.09-14.57 15.09-8.04 0-14.22-5.53-14.22-14.62 0-9.32 6.12-15.03 14.68-15.03 8.45-.01 14.11 5.93 14.11 14.56zm-21.39.29c0 5.48 2.68 9.61 7.05 9.61 4.08 0 6.93-4.02 6.93-9.73 0-4.43-1.98-9.5-6.88-9.5-5.06.01-7.1 4.9-7.1 9.62zm27.27-5.07c0-3.84-.06-6.58-.23-9.15h6.23l.23 5.42h.23c1.4-4.02 4.72-6.06 7.75-6.06.7 0 1.11.06 1.69.18v6.76c-.69-.15-1.39-.23-2.1-.23-3.44 0-5.77 2.21-6.41 5.42-.12.64-.23 1.4-.23 2.21v14.68h-7.17l.01-19.23zm25.29 7.05c.18 5.13 4.2 7.34 8.74 7.34 3.32 0 5.71-.47 7.87-1.28l1.05 4.95c-2.45.99-5.82 1.75-9.91 1.75-9.2 0-14.62-5.65-14.62-14.33 0-7.87 4.78-15.26 13.86-15.26 9.2 0 12.24 7.58 12.24 13.81 0 1.34-.12 2.39-.23 3.03l-19-.01zm12.46-5.01c.06-2.62-1.11-6.93-5.89-6.93-4.43 0-6.29 4.02-6.58 6.93h12.47zM175.75 99.65l-1.93 5.84h-2.48l6.31-18.57h2.89l6.34 18.57h-2.56l-1.98-5.84h-6.59zm6.09-1.87-1.82-5.34c-.41-1.21-.69-2.31-.96-3.39H179c-.28 1.1-.58 2.23-.94 3.36l-1.82 5.37h5.6zm7.6-2.01c0-1.38-.03-2.51-.11-3.61h2.15l.14 2.21h.05c.66-1.27 2.21-2.51 4.41-2.51 1.85 0 4.71 1.1 4.71 5.67v7.96h-2.42V97.8c0-2.15-.8-3.94-3.09-3.94-1.6 0-2.84 1.13-3.25 2.48-.11.3-.16.72-.16 1.13v8.02h-2.42l-.01-9.72zm23.61-8.85v18.57h-2.4V86.92h2.4zm4.38 8.85c0-1.38-.03-2.51-.11-3.61h2.15l.14 2.21h.05c.66-1.27 2.21-2.51 4.41-2.51 1.85 0 4.71 1.1 4.71 5.67v7.96h-2.42V97.8c0-2.15-.8-3.94-3.09-3.94-1.6 0-2.84 1.13-3.25 2.48-.11.3-.16.72-.16 1.13v8.02h-2.42l-.01-9.72zm17.99-7.36c.03.83-.58 1.49-1.54 1.49-.86 0-1.46-.66-1.46-1.49 0-.86.63-1.51 1.51-1.51.91 0 1.49.66 1.49 1.51zm-2.7 17.09V92.16h2.42v13.34h-2.42zm9.37-17.17v3.83h3.47v1.85h-3.47v7.19c0 1.65.47 2.59 1.82 2.59.63 0 1.1-.08 1.41-.16l.11 1.82c-.47.19-1.21.33-2.15.33-1.13 0-2.04-.36-2.62-1.02-.69-.72-.94-1.9-.94-3.47v-7.27h-2.07v-1.85h2.07v-3.2l2.37-.64zm8.9.08c.03.83-.58 1.49-1.54 1.49-.86 0-1.46-.66-1.46-1.49 0-.86.63-1.51 1.51-1.51.91 0 1.49.66 1.49 1.51zm-2.7 17.09V92.16h2.42v13.34h-2.42zm13.83 0-.19-1.68h-.08c-.74 1.05-2.18 1.98-4.08 1.98-2.7 0-4.08-1.9-4.08-3.83 0-3.22 2.86-4.99 8.02-4.96v-.28c0-1.1-.3-3.09-3.03-3.09-1.24 0-2.53.39-3.47.99l-.55-1.6c1.1-.72 2.7-1.18 4.38-1.18 4.08 0 5.07 2.78 5.07 5.46v4.99c0 1.16.05 2.29.22 3.2h-2.21zm-.36-6.81c-2.65-.05-5.65.41-5.65 3 0 1.57 1.05 2.31 2.29 2.31 1.74 0 2.84-1.1 3.22-2.23.08-.25.14-.52.14-.77v-2.31zm9.06-10.36v3.83h3.47v1.85h-3.47v7.19c0 1.65.47 2.59 1.82 2.59.63 0 1.1-.08 1.41-.16l.11 1.82c-.47.19-1.21.33-2.15.33-1.13 0-2.04-.36-2.62-1.02-.69-.72-.94-1.9-.94-3.47v-7.27h-2.07v-1.85h2.07v-3.2l2.37-.64zm8.9.08c.03.83-.58 1.49-1.54 1.49-.86 0-1.46-.66-1.46-1.49 0-.86.63-1.51 1.51-1.51.91 0 1.49.66 1.49 1.51zm-2.7 17.09V92.16h2.42v13.34h-2.42zm7.39-13.34 2.62 7.49c.44 1.21.8 2.31 1.07 3.42h.08c.3-1.1.69-2.21 1.13-3.42l2.59-7.49h2.53l-5.23 13.34h-2.32l-5.07-13.34h2.6zm13.39 7.11c.05 3.28 2.15 4.63 4.58 4.63 1.74 0 2.78-.3 3.69-.69l.41 1.74c-.86.39-2.31.83-4.44.83-4.11 0-6.56-2.7-6.56-6.72s2.37-7.19 6.25-7.19c4.35 0 5.51 3.83 5.51 6.28 0 .5-.05.88-.08 1.13l-9.36-.01zm7.1-1.73c.03-1.54-.63-3.94-3.36-3.94-2.45 0-3.53 2.26-3.72 3.94h7.08zm11.08 7.96c.05-.91.11-2.26.11-3.44V85.94h2.4v8.38h.05c.86-1.49 2.4-2.45 4.55-2.45 3.31 0 5.65 2.76 5.62 6.81 0 4.76-3 7.13-5.98 7.13-1.93 0-3.47-.74-4.46-2.51h-.08l-.11 2.21-2.1-.01zm2.51-5.35c0 .3.05.61.11.88.47 1.68 1.87 2.84 3.64 2.84 2.53 0 4.05-2.07 4.05-5.13 0-2.67-1.38-4.96-3.97-4.96-1.65 0-3.2 1.13-3.69 2.97-.05.28-.14.61-.14.99v2.41zm13.97-7.99 2.92 7.88c.3.88.63 1.93.86 2.73h.05c.25-.8.52-1.82.86-2.78l2.65-7.83h2.56l-3.64 9.5c-1.74 4.58-2.92 6.92-4.58 8.35-1.18 1.05-2.37 1.46-2.97 1.57l-.61-2.04c.61-.19 1.41-.58 2.12-1.18.66-.52 1.49-1.46 2.04-2.7.11-.25.19-.44.19-.58s-.05-.33-.16-.63l-4.93-12.29h2.64zm32.15 12.51c-1.07.39-3.2 1.02-5.7 1.02-2.81 0-5.13-.72-6.94-2.45-1.6-1.54-2.59-4.02-2.59-6.92.03-5.54 3.83-9.59 10.06-9.59 2.15 0 3.83.47 4.63.86l-.58 1.95c-.99-.44-2.23-.8-4.11-.8-4.52 0-7.47 2.81-7.47 7.47 0 4.71 2.84 7.49 7.16 7.49 1.57 0 2.65-.22 3.2-.49v-5.54h-3.77v-1.93h6.12l-.01 8.93zm15.78-5.95c0 4.93-3.42 7.08-6.64 7.08-3.61 0-6.39-2.65-6.39-6.86 0-4.46 2.92-7.08 6.61-7.08 3.84 0 6.42 2.78 6.42 6.86zm-10.57.14c0 2.92 1.68 5.13 4.05 5.13 2.31 0 4.05-2.18 4.05-5.18 0-2.26-1.13-5.13-4-5.13s-4.1 2.64-4.1 5.18zm14.38-6.7 2.62 7.49c.44 1.21.8 2.31 1.07 3.42h.08c.3-1.1.69-2.21 1.13-3.42l2.59-7.49h2.53l-5.23 13.34h-2.31l-5.07-13.34h2.59zm15.23-3.83v3.83h3.47v1.85h-3.47v7.19c0 1.65.47 2.59 1.82 2.59.63 0 1.1-.08 1.41-.16l.11 1.82c-.47.19-1.21.33-2.15.33-1.13 0-2.04-.36-2.62-1.02-.69-.72-.94-1.9-.94-3.47v-7.27H395v-1.85h2.07v-3.2l2.36-.64zm5.54 15.73c0-1.02.69-1.74 1.65-1.74s1.63.72 1.63 1.74c0 .99-.63 1.74-1.65 1.74-.97 0-1.63-.74-1.63-1.74zm24.19-5.34c0 4.93-3.42 7.08-6.64 7.08-3.61 0-6.39-2.65-6.39-6.86 0-4.46 2.92-7.08 6.61-7.08 3.83 0 6.42 2.78 6.42 6.86zm-10.58.14c0 2.92 1.68 5.13 4.05 5.13 2.31 0 4.05-2.18 4.05-5.18 0-2.26-1.13-5.13-4-5.13s-4.1 2.64-4.1 5.18zm13.89 6.64V94.01h-1.87v-1.85h1.87v-.63c0-1.87.41-3.58 1.54-4.66.91-.88 2.12-1.24 3.25-1.24.86 0 1.6.19 2.07.39l-.33 1.87c-.36-.16-.86-.3-1.54-.3-2.07 0-2.59 1.82-2.59 3.86v.72h3.22v1.85h-3.22v11.49h-2.4v-.01zm15.76 0-4.71-18.57h2.53l2.21 9.4c.55 2.32 1.05 4.63 1.38 6.42h.05c.3-1.85.88-4.05 1.51-6.45l2.48-9.37h2.51l2.26 9.42c.52 2.21 1.02 4.41 1.3 6.37h.05c.39-2.04.91-4.11 1.49-6.42l2.45-9.37h2.45l-5.26 18.57h-2.51l-2.34-9.67c-.58-2.37-.96-4.19-1.21-6.06h-.05c-.33 1.85-.74 3.67-1.43 6.06l-2.65 9.67h-2.51zm20.63-6.23c.05 3.28 2.15 4.63 4.58 4.63 1.74 0 2.78-.3 3.69-.69l.41 1.74c-.86.39-2.31.83-4.44.83-4.11 0-6.56-2.7-6.56-6.72s2.37-7.19 6.25-7.19c4.35 0 5.51 3.83 5.51 6.28 0 .5-.05.88-.08 1.13l-9.36-.01zm7.11-1.73c.03-1.54-.63-3.94-3.36-3.94-2.45 0-3.53 2.26-3.72 3.94h7.08zm5.01 5.48c.72.47 1.98.96 3.2.96 1.76 0 2.59-.88 2.59-1.98 0-1.16-.69-1.79-2.48-2.45-2.4-.86-3.53-2.18-3.53-3.77 0-2.15 1.74-3.91 4.6-3.91 1.35 0 2.53.39 3.28.83l-.6 1.76c-.52-.33-1.49-.77-2.73-.77-1.43 0-2.23.83-2.23 1.82 0 1.1.8 1.6 2.53 2.26 2.31.88 3.5 2.04 3.5 4.02 0 2.34-1.82 4-4.99 4-1.46 0-2.81-.36-3.75-.91l.61-1.86zm14.16-14.69v3.83h3.47v1.85h-3.47v7.19c0 1.65.47 2.59 1.82 2.59.63 0 1.1-.08 1.41-.16l.11 1.82c-.47.19-1.21.33-2.15.33-1.13 0-2.04-.36-2.62-1.02-.69-.72-.94-1.9-.94-3.47v-7.27h-2.07v-1.85h2.07v-3.2l2.37-.64zm12.13-1.16c1.05-.22 2.7-.39 4.38-.39 2.4 0 3.94.42 5.1 1.35.96.72 1.54 1.82 1.54 3.28 0 1.79-1.18 3.36-3.14 4.08v.05c1.76.44 3.83 1.9 3.83 4.66 0 1.6-.63 2.81-1.57 3.72-1.3 1.18-3.39 1.74-6.42 1.74-1.65 0-2.92-.11-3.72-.22V87.17zm2.39 7.61h2.18c2.53 0 4.02-1.32 4.02-3.11 0-2.18-1.65-3.03-4.08-3.03-1.1 0-1.74.08-2.12.16v5.98zm0 8.9c.47.08 1.16.11 2.01.11 2.48 0 4.76-.91 4.76-3.61 0-2.53-2.18-3.58-4.79-3.58h-1.98v7.08zm13.92-4.41c.05 3.28 2.15 4.63 4.58 4.63 1.74 0 2.78-.3 3.69-.69l.41 1.74c-.86.39-2.31.83-4.44.83-4.11 0-6.56-2.7-6.56-6.72s2.37-7.19 6.25-7.19c4.35 0 5.51 3.83 5.51 6.28 0 .5-.05.88-.08 1.13l-9.36-.01zm7.11-1.73c.03-1.54-.63-3.94-3.36-3.94-2.45 0-3.53 2.26-3.72 3.94h7.08zm5.34-1.77c0-1.38-.03-2.51-.11-3.61h2.15l.14 2.21h.05c.66-1.27 2.21-2.51 4.41-2.51 1.85 0 4.71 1.1 4.71 5.67v7.96h-2.42V97.8c0-2.15-.8-3.94-3.09-3.94-1.6 0-2.84 1.13-3.25 2.48-.11.3-.16.72-.16 1.13v8.02h-2.42l-.01-9.72zm26.78-3.61c-.05.96-.11 2.04-.11 3.67v7.74c0 3.06-.6 4.93-1.9 6.09-1.3 1.21-3.17 1.6-4.85 1.6-1.6 0-3.36-.39-4.44-1.1l.6-1.85c.88.55 2.26 1.05 3.91 1.05 2.48 0 4.3-1.3 4.3-4.66v-1.49h-.05c-.74 1.24-2.18 2.23-4.24 2.23-3.31 0-5.67-2.81-5.67-6.5 0-4.52 2.95-7.08 6.01-7.08 2.31 0 3.58 1.21 4.16 2.31h.05l.11-2.01h2.12zm-2.51 5.26c0-.41-.03-.77-.14-1.1-.44-1.4-1.63-2.56-3.39-2.56-2.31 0-3.97 1.95-3.97 5.04 0 2.62 1.32 4.79 3.94 4.79 1.49 0 2.84-.94 3.36-2.48.14-.41.19-.88.19-1.3l.01-2.39zm13.81 8.08-.19-1.68h-.08c-.74 1.05-2.18 1.98-4.08 1.98-2.7 0-4.08-1.9-4.08-3.83 0-3.22 2.86-4.99 8.02-4.96v-.28c0-1.1-.3-3.09-3.03-3.09-1.24 0-2.53.39-3.47.99l-.55-1.6c1.1-.72 2.7-1.18 4.38-1.18 4.08 0 5.07 2.78 5.07 5.46v4.99c0 1.16.05 2.29.22 3.2h-2.21zm-.36-6.81c-2.65-.05-5.65.41-5.65 3 0 1.57 1.05 2.31 2.29 2.31 1.74 0 2.84-1.1 3.22-2.23.08-.25.14-.52.14-.77v-2.31zM580 85.93h2.42v19.56H580V85.93z"/><path d="M75.53 98.78c.96.33 1.95.24 2.94.24 10.26 0 20.53 0 30.79-.01.87 0 1.77.15 2.89-.29V18.28H50.1v18.53c-1.99.61-3.62.43-5.48.11V12.88h72.78c.77.9.46 2.03.47 3.06.03 3.75.11 7.51-.07 11.25-.1 1.96.54 3 2.27 3.94 7.63 4.12 15.18 8.39 22.75 12.61.59.33 1.29.53 1.76 1.54-4.11 3.48-7.98 7.37-11.36 12.07 6.05 4.25 11.89 8.35 18.13 12.73-14.69 8.32-25.68 19.71-33.49 34.2H24.42C20 80.15 15.59 56.09 11.17 31.95c2.19-.47 4.26-.21 6.31-.23 5.03-.05 10.07-.07 15.1-.01 1.89.02 3.28 1.34 3.14 2.84-.16 1.75-1.31 2.56-3 2.66-.69.04-1.38.03-2.07.03-3.26 0-6.51-.03-9.77-.01-.96.01-1.98-.22-2.98.48-.05 1.62.39 3.2.76 4.73 1.15.64 2.25.38 3.31.38 19.44.01 38.88-.01 58.32-.02 1.77 0 3.55.08 5.32.11-.32 1.03-.58 2.09-.96 3.1C79.8 58.9 74.96 71.8 70.04 84.67c-1.15 3-2 6.14-3.7 9.13H28.46c-.41 1.85.46 3.25.61 4.68 1.23.72 2.44.48 3.6.48 11.14.01 22.28.02 33.43-.01 3.13-.03 6.29.18 9.43-.17zM57.1 87.82c1.94.19 3.88.52 5.89-.12 4.89-13.06 9.77-26.08 14.76-39.4H19.73c.74 4.53 1.34 8.88 2.63 13.1 1.6 8.75 3.19 17.5 4.82 26.42H57.1zm60.71-51.77c-.04 12.14-.09 23.6.42 35.09 4.59-9.23 10.16-17.6 17.54-25.17-6-3.31-11.71-6.47-17.96-9.92zm23.84 33.72c-4.05-2.79-7.66-5.28-11.62-8.01-5.91 9.22-10.13 18.72-11.08 29.57 6.56-8.07 13.67-15.45 22.7-21.56zm-103.5 43.91c-2.07.08-3.76-1.48-3.88-3.59-.13-2.1 1.39-3.83 3.47-3.96 2.23-.14 4.01 1.5 4.04 3.71.02 2.14-1.5 3.76-3.63 3.84zm27.4-3.75c0 2.13-1.61 3.75-3.72 3.76-2.08.01-3.68-1.61-3.73-3.77-.04-2.05 1.66-3.78 3.72-3.77 2.07.02 3.74 1.71 3.73 3.78z" style="fill:#564dce"/></svg>