<?xml version="1.0" encoding="utf-8"?>
<!-- Generator: Adobe Illustrator 25.4.1, SVG Export Plug-In . SVG Version: 6.00 Build 0)  -->
<svg version="1.1" id="Layer_1" xmlns="http://www.w3.org/2000/svg" xmlns:xlink="http://www.w3.org/1999/xlink" x="0px" y="0px"
	 viewBox="0 0 142.49 103.83" style="enable-background:new 0 0 142.49 103.83;" xml:space="preserve">
<style type="text/css">
	.st0{fill:#564DCE;}
</style>
<path class="st0" d="M65.52,87.41c0.96,0.33,1.95,0.24,2.94,0.24c10.26,0,20.53,0,30.79-0.01c0.87,0,1.77,0.15,2.89-0.29V6.91H40.09
	v18.53c-1.99,0.61-3.62,0.43-5.48,0.11V1.51h72.78c0.77,0.9,0.46,2.03,0.47,3.06c0.03,3.75,0.11,7.51-0.07,11.25
	c-0.1,1.96,0.54,3,2.27,3.94c7.63,4.12,15.18,8.39,22.75,12.61c0.59,0.33,1.29,0.53,1.76,1.54c-4.11,3.48-7.98,7.37-11.36,12.07
	c6.05,4.25,11.89,8.35,18.13,12.73c-14.69,8.32-25.68,19.71-33.49,34.2H14.41C9.99,68.78,5.58,44.72,1.16,20.58
	c2.19-0.47,4.26-0.21,6.31-0.23c5.03-0.05,10.07-0.07,15.1-0.01c1.89,0.02,3.28,1.34,3.14,2.84c-0.16,1.75-1.31,2.56-3,2.66
	c-0.69,0.04-1.38,0.03-2.07,0.03c-3.26,0-6.51-0.03-9.77-0.01c-0.96,0.01-1.98-0.22-2.98,0.48c-0.05,1.62,0.39,3.2,0.76,4.73
	c1.15,0.64,2.25,0.38,3.31,0.38c19.44,0.01,38.88-0.01,58.32-0.02c1.77,0,3.55,0.08,5.32,0.11c-0.32,1.03-0.58,2.09-0.96,3.1
	c-4.85,12.89-9.69,25.79-14.61,38.66c-1.15,3-2,6.14-3.7,9.13H18.45c-0.41,1.85,0.46,3.25,0.61,4.68c1.23,0.72,2.44,0.48,3.6,0.48
	c11.14,0.01,22.28,0.02,33.43-0.01C59.22,87.55,62.38,87.76,65.52,87.41z M47.09,76.45c1.94,0.19,3.88,0.52,5.89-0.12
	c4.89-13.06,9.77-26.08,14.76-39.4H9.72c0.74,4.53,1.34,8.88,2.63,13.1c1.6,8.75,3.19,17.5,4.82,26.42
	C17.17,76.45,47.09,76.45,47.09,76.45z M107.8,24.68c-0.04,12.14-0.09,23.6,0.42,35.09c4.59-9.23,10.16-17.6,17.54-25.17
	C119.76,31.29,114.05,28.13,107.8,24.68z M131.64,58.4c-4.05-2.79-7.66-5.28-11.62-8.01c-5.91,9.22-10.13,18.72-11.08,29.57
	C115.5,71.89,122.61,64.51,131.64,58.4z M28.14,102.31c-2.07,0.08-3.76-1.48-3.88-3.59c-0.13-2.1,1.39-3.83,3.47-3.96
	c2.23-0.14,4.01,1.5,4.04,3.71C31.79,100.61,30.27,102.23,28.14,102.31z M55.54,98.56c0,2.13-1.61,3.75-3.72,3.76
	c-2.08,0.01-3.68-1.61-3.73-3.77c-0.04-2.05,1.66-3.78,3.72-3.77C53.88,94.8,55.55,96.49,55.54,98.56z"/>
</svg>
